<?xml version="1.0" standalone="no"?>
<!DOCTYPE svg PUBLIC "-//W3C//DTD SVG 20010904//EN"
 "http://www.w3.org/TR/2001/REC-SVG-20010904/DTD/svg10.dtd">
<svg version="1.0" xmlns="http://www.w3.org/2000/svg"
 width="2000.000000pt" height="2000.000000pt" viewBox="0 0 2000.000000 2000.000000"
 preserveAspectRatio="xMidYMid meet">

<g transform="translate(0.000000,2000.000000) scale(0.100000,-0.100000)"
fill="#000000" stroke="none">
<path d="M9885 16240 c-824 -87 -1533 -577 -1890 -1305 -110 -225 -183 -456
-222 -705 -25 -161 -25 -519 1 -680 77 -490 292 -933 620 -1276 52 -55 470
-434 929 -844 l834 -745 -2186 -5 c-1794 -4 -2190 -7 -2209 -18 -13 -8 -30
-29 -38 -48 -12 -29 -12 -39 0 -68 30 -71 -78 -66 1308 -66 l1248 0 0 -2160 0
-2160 -2021 0 c-1187 0 -2037 4 -2062 9 -23 5 -73 14 -112 21 -335 54 -694
214 -964 430 -121 97 -339 321 -413 425 -218 308 -331 591 -397 996 -6 37 -11
162 -11 278 0 169 4 236 21 334 53 313 163 595 326 842 299 451 717 758 1231
902 68 19 149 39 180 44 110 18 298 39 362 39 74 0 105 15 124 62 17 38 10 72
-20 102 -33 33 -56 35 -220 25 -477 -30 -936 -206 -1319 -507 -98 -77 -320
-302 -392 -397 -262 -347 -425 -737 -477 -1143 -20 -154 -21 -459 -2 -602 119
-890 719 -1633 1559 -1929 116 -41 255 -76 402 -104 l120 -22 2713 -3 2713 -2
30 29 c16 16 29 39 29 50 0 21 4 21 235 21 231 0 235 0 235 -21 0 -11 13 -34
29 -50 29 -28 32 -29 129 -29 112 0 145 15 157 70 l7 30 202 0 202 0 13 -35
c25 -69 -19 -66 879 -63 791 4 809 4 931 27 260 48 458 114 682 227 682 345
1155 1007 1264 1769 20 138 20 532 0 666 -59 389 -202 738 -434 1059 -86 120
-298 342 -416 437 -269 216 -571 367 -905 454 -63 17 -148 33 -188 36 -40 3
-75 10 -78 14 -3 5 41 59 97 121 56 62 116 129 133 148 90 102 206 231 251
280 27 31 66 73 85 95 196 221 366 411 370 415 3 3 39 43 80 90 41 47 96 107
121 135 25 27 66 73 90 100 24 28 66 75 94 105 27 31 66 73 85 95 20 22 92
103 160 179 69 77 143 160 165 185 22 25 63 71 92 101 28 30 61 67 73 83 12
15 25 27 29 27 8 0 45 -31 171 -144 115 -102 232 -207 280 -251 64 -58 72 -65
325 -289 105 -93 213 -190 240 -215 28 -25 69 -62 90 -81 67 -59 227 -202 285
-255 31 -27 73 -66 95 -85 143 -127 419 -372 465 -415 31 -27 74 -66 95 -85
71 -62 228 -203 285 -255 30 -27 78 -70 105 -94 427 -375 599 -541 707 -687
224 -302 343 -589 419 -1009 19 -107 16 -476 -5 -600 -18 -106 -71 -332 -86
-368 -5 -12 -26 -64 -45 -116 -161 -420 -492 -811 -891 -1054 -171 -104 -391
-197 -573 -242 -217 -54 -308 -65 -530 -65 -263 0 -384 15 -592 75 -303 88
-594 240 -799 419 -71 62 -78 66 -126 66 -36 0 -56 -5 -71 -20 -27 -24 -37
-69 -24 -103 22 -58 309 -269 511 -375 197 -104 456 -191 690 -232 157 -28
486 -38 641 -20 538 61 1003 276 1380 637 406 390 645 865 720 1433 16 122 16
428 0 550 -20 153 -60 325 -106 465 -120 365 -312 672 -587 941 -57 56 -737
668 -1513 1360 -775 692 -1498 1338 -1606 1434 -107 96 -331 297 -498 445
-166 149 -314 274 -330 279 -21 6 -38 3 -64 -9 l-37 -17 -39 33 c-186 159
-299 266 -294 279 4 8 8 34 11 58 4 43 3 45 -64 108 -78 72 -116 86 -169 61
l-33 -16 -151 135 c-105 94 -149 139 -143 147 16 21 21 58 11 87 -7 19 -188
187 -545 506 -294 263 -568 503 -610 535 -321 247 -684 401 -1094 464 -122 19
-448 28 -565 15z m-1339 -1606 c33 -32 29 -73 -15 -195 -54 -151 -83 -277 -93
-414 -18 -235 -12 -385 22 -522 5 -24 14 -60 19 -80 12 -51 64 -204 96 -280
33 -81 113 -219 181 -314 70 -97 446 -467 598 -587 22 -18 70 -61 106 -95 36
-34 117 -107 179 -162 188 -165 330 -297 346 -321 43 -65 -2 -144 -82 -144
-41 0 -50 5 -122 73 -43 39 -129 117 -191 172 -62 55 -148 132 -190 170 -87
79 -259 233 -400 357 -240 212 -359 343 -473 519 -59 92 -126 220 -153 291
-43 116 -86 247 -96 293 -5 27 -14 68 -19 90 -29 122 -42 407 -26 560 27 252
112 532 179 595 33 30 101 28 134 -6z m1916 -3386 c92 -76 210 -181 300 -269
89 -86 98 -114 52 -168 -22 -26 -33 -31 -71 -31 -50 0 -77 19 -219 149 -39 37
-110 101 -158 144 -85 78 -86 79 -86 127 0 42 4 52 31 74 47 40 77 34 151 -26z
m-69 -1036 c39 -40 37 -90 -4 -131 -17 -17 -40 -33 -52 -36 -12 -4 -138 -5
-279 -3 -243 3 -258 4 -285 24 -24 18 -28 29 -31 77 -2 46 1 60 18 77 19 19
31 20 313 20 l293 0 27 -28z m2145 18 c26 -6 70 -15 97 -21 440 -89 836 -335
1132 -704 77 -96 190 -277 228 -366 74 -174 85 -205 85 -241 0 -49 -43 -98
-87 -98 -56 0 -88 32 -123 121 -122 318 -320 583 -574 773 -222 166 -433 260
-736 329 -28 6 -356 13 -848 16 l-804 6 -34 37 c-42 46 -44 84 -8 127 l26 31
799 0 c511 0 817 -4 847 -10z"/>
</g>
</svg>
